<?xml version="1.0" encoding="UTF-8" standalone="no"?>
<!DOCTYPE svg PUBLIC "-//W3C//DTD SVG 1.1//EN" "http://www.w3.org/Graphics/SVG/1.1/DTD/svg11.dtd">
<svg width="100%" height="100%" viewBox="0 0 40 55" version="1.1" xmlns="http://www.w3.org/2000/svg" xmlns:xlink="http://www.w3.org/1999/xlink" xml:space="preserve" xmlns:serif="http://www.serif.com/" style="fill-rule:evenodd;clip-rule:evenodd;stroke-linejoin:round;stroke-miterlimit:2;">
    <!-- This illustration is by @inorganik. Enjoy -->
    <g id="Artboard1" transform="matrix(0.784314,0,0,0.859375,0.784314,0.859375)">
        <rect x="-1" y="-1" width="51" height="64" style="fill:none;"/>
        <g transform="matrix(2.37382,0,0,2.16648,-1260.45,-1029.24)">
            <path d="M549.302,486.467C550.903,488.314 551.872,490.724 551.872,493.358C551.872,499.169 547.154,503.887 541.343,503.887C535.531,503.887 530.813,499.169 530.813,493.358C530.813,490.724 531.782,488.314 533.383,486.467L549.302,486.467ZM537.7,485.861L533.985,485.861L533.98,482.242C533.98,478.178 537.279,474.879 541.343,474.879C545.406,474.879 548.706,478.178 548.706,482.242L548.703,485.861L544.985,485.861L544.985,482.242C544.985,480.231 543.353,478.599 541.343,478.599C539.332,478.599 537.7,480.231 537.7,482.242L537.7,485.861Z" style="fill:white;"/>
        </g>
    </g>
</svg>
