<?xml version="1.0" encoding="UTF-8" standalone="no"?>
<!DOCTYPE svg PUBLIC "-//W3C//DTD SVG 1.1//EN" "http://www.w3.org/Graphics/SVG/1.1/DTD/svg11.dtd">
<svg width="100%" height="100%" viewBox="0 0 629 287" version="1.1" xmlns="http://www.w3.org/2000/svg" xmlns:xlink="http://www.w3.org/1999/xlink" xml:space="preserve" xmlns:serif="http://www.serif.com/" style="fill-rule:evenodd;clip-rule:evenodd;stroke-linejoin:round;stroke-miterlimit:2;">
    <!-- This illustration is by @inorganik. Enjoy -->
    <g id="Artboard1" transform="matrix(0.979751,0,0,1.0361,0,0)">
        <rect x="0" y="0" width="642" height="277" style="fill:none;"/>
        <g transform="matrix(1.19401,0,0,1.12907,-47.2659,-31.5579)">
            <path d="M163.669,191.528L163.669,267.559C161.893,267.537 160.126,267.474 158.369,267.372L158.369,191.528L163.669,191.528ZM172.548,191.528L172.548,267.339C170.611,267.46 168.66,267.534 166.698,267.559L166.698,191.528L172.548,191.528ZM155.341,191.528L155.341,267.157C139.113,265.794 123.829,261.092 110.179,253.74L149.259,214.66C149.517,214.346 149.664,213.985 149.703,213.59L149.703,191.528L155.341,191.528ZM181.166,191.528L181.166,249.941C181.209,250.597 181.368,250.736 181.609,251.011L194.446,263.848C188.337,265.435 182.032,266.537 175.577,267.11L175.577,191.528L181.166,191.528ZM189.854,191.528L189.854,246.965C189.879,247.348 189.812,247.482 190.298,248.036L203.395,261.133C201.548,261.776 199.68,262.374 197.793,262.925L184.194,249.313L184.194,191.528L189.854,191.528ZM205.402,177.783L220.644,177.783L260.589,217.729C247.322,236.742 228.519,251.611 206.526,259.991L192.883,246.338L192.883,191.528L205.402,191.528L205.402,177.783ZM146.674,191.528L146.674,212.962L107.427,252.21C105.765,251.256 104.13,250.263 102.521,249.231L140.12,211.632C140.317,211.412 140.435,211.164 140.486,210.912C140.524,210.803 140.551,210.686 140.564,210.561L140.564,191.528L146.674,191.528ZM137.535,191.528L137.535,209.934L99.942,247.527C69.16,226.603 48.924,191.301 48.924,151.309C48.924,147.401 49.117,143.538 49.495,139.729L62.396,139.732L73.299,150.636C73.459,150.78 73.621,150.884 73.782,150.951L73.781,150.955L75.18,151.889L124.965,151.889L124.965,157.546L74.37,157.546C73.224,157.675 72.568,158.809 73.006,159.717C73.363,160.46 74.354,160.572 74.37,160.574L124.965,160.574L124.965,166.244L74.773,166.244C73.626,166.374 72.971,167.508 73.408,168.416C73.766,169.158 74.757,169.271 74.773,169.273L124.965,169.273L124.965,174.755L74.37,174.755C73.224,174.884 72.568,176.018 73.006,176.926C73.363,177.669 74.354,177.782 74.37,177.783L124.965,177.783L124.965,191.528L137.535,191.528ZM205.402,151.889L444.135,151.889L456.464,163.928C456.947,164.245 456.954,164.247 457.522,164.359L567.083,164.359L567.083,170.212L424.743,170.212C422.692,170.415 423.109,173.079 424.743,173.241L567.083,173.241L567.083,178.905L424.246,178.905C422.059,179.121 422.652,181.775 424.246,181.933L567.083,181.933L567.083,187.736L424.258,187.736C422.364,187.923 422.631,190.604 424.258,190.765L567.083,190.765L567.083,196.483L486.796,196.483C486.474,196.508 486.176,196.606 485.906,196.772L477.083,205.568L457.538,205.568C455.606,205.729 455.886,208.46 457.538,208.597L477.71,208.597C478.032,208.571 478.33,208.473 478.6,208.308L487.423,199.511L567.083,199.511L567.083,205.251L489.846,205.251C489.524,205.276 489.226,205.374 488.956,205.54L480.133,214.336L457.56,214.336C455.374,214.518 455.922,217.229 457.56,217.365L480.76,217.365C481.082,217.339 481.38,217.241 481.65,217.076L490.473,208.279L567.083,208.279L567.083,234.717L394.513,234.717L357.136,198.902L357.136,181.862C357.085,181.061 356.911,180.633 355.905,180.374C354.907,180.248 354.164,180.955 354.107,181.862L354.107,199.549C354.144,200.189 354.308,200.356 354.574,200.642L390.148,234.717L381.85,234.717L349.148,203.378L349.148,181.863C349.098,181.04 348.868,180.552 347.816,180.359C346.865,180.302 346.172,180.991 346.119,181.863L346.119,204.025C346.156,204.666 346.32,204.832 346.586,205.118L377.487,234.717L369.941,234.717L340.974,206.959L340.974,181.863C340.912,180.873 340.431,180.552 339.744,180.375C338.745,180.249 338.003,180.956 337.946,181.863L337.946,207.605C337.983,208.246 338.146,208.412 338.412,208.699L365.575,234.717L336.404,234.717L317.772,213.943L317.772,190.801L274.552,190.801C273.449,193.853 272.221,196.845 270.875,199.772L229.093,157.989C228.664,157.637 228.497,157.629 228.318,157.575L228.022,157.546L205.402,157.546L205.402,151.889ZM205.402,169.273L224.375,169.273L265.379,210.277C264.399,211.937 263.379,213.571 262.32,215.177L222.342,175.198C222.197,175.079 222.098,174.945 221.566,174.784L221.271,174.755L205.402,174.755L205.402,169.273ZM205.402,160.574L227.395,160.574L269.493,202.672C268.679,204.321 267.826,205.949 266.937,207.552L226.073,166.688C225.928,166.569 225.829,166.435 225.298,166.273L225.002,166.244L205.402,166.244L205.402,160.574ZM205.402,142.979L446.839,142.979L459.279,155.124C459.763,155.441 459.769,155.443 460.337,155.555L567.083,155.555L567.083,161.33L458.138,161.33L445.81,149.292L445.323,148.973L444.752,148.861L205.402,148.861L205.402,142.979ZM205.402,134.602L449.858,134.602L461.528,146.273C462.017,146.599 462.024,146.602 462.599,146.716L567.083,146.716L567.083,152.526L460.954,152.526L448.514,140.381L447.456,139.951L205.402,139.951L205.402,134.602ZM124.965,148.861L75.678,148.861C75.622,148.732 75.544,148.608 75.441,148.494L64.094,137.147C63.835,136.913 63.731,136.794 63.172,136.711C58.737,136.493 54.297,136.484 49.856,136.533C50.054,134.976 50.282,133.429 50.542,131.892L66.263,131.892L76.906,142.536L77.977,142.979L124.965,142.979L124.965,148.861ZM205.402,125.835L452.886,125.835L464.557,137.506C465.045,137.832 465.052,137.835 465.628,137.949L567.083,137.949L567.083,143.688L463.226,143.688L451.556,132.017L450.485,131.574L205.402,131.574L205.402,125.835ZM124.965,139.951L78.604,139.951L67.961,129.307L67.47,128.979C67.277,128.94 67.083,128.902 66.89,128.864L51.093,128.864C52.407,122.159 54.298,115.66 56.711,109.42L81.45,134.159L82.521,134.602L124.965,134.602L124.965,139.951ZM192.872,111.091L192.883,99.588L234.488,57.983C249.194,68.925 261.229,83.26 269.433,99.825L567.083,99.825L567.083,134.921L466.255,134.921L454.584,123.25L453.514,122.807L205.402,122.807L205.402,111.091L192.872,111.091ZM124.965,131.574L83.148,131.574L57.943,106.368C58.53,104.969 59.145,103.583 59.785,102.212L82.964,125.392L84.035,125.835L124.965,125.835L124.965,131.574ZM124.965,122.807L84.662,122.807L61.182,99.326C73.217,75.316 93.323,56.041 117.932,45.069L137.535,64.7L137.535,111.091L124.965,111.091L124.965,122.807ZM140.564,111.091L140.564,64.073C140.524,63.668 140.372,63.309 140.12,63.002L120.909,43.791C122.774,43.021 124.663,42.299 126.574,41.625L146.674,61.725L146.674,111.091L140.564,111.091ZM155.341,111.091L149.703,111.091L149.703,61.098C149.663,60.692 149.511,60.334 149.259,60.027L129.78,40.548C137.946,37.936 146.503,36.204 155.341,35.462L155.341,111.091ZM163.669,111.091L158.369,111.091L158.369,35.247C160.126,35.145 161.893,35.082 163.669,35.06L163.669,111.091ZM166.698,111.091L166.698,35.06C168.66,35.085 170.61,35.159 172.548,35.28L172.548,111.091L166.698,111.091ZM175.577,111.091L175.577,35.509C193.41,37.092 210.091,42.709 224.7,51.44L181.609,94.53C181.356,94.819 181.214,94.866 181.166,95.601L181.166,111.091L175.577,111.091ZM184.182,111.091L184.194,96.228L227.35,53.072C228.927,54.073 230.479,55.111 232.004,56.184L190.298,97.89C189.864,98.385 189.878,98.596 189.854,98.961L189.854,111.091L184.182,111.091Z" style="fill:rgb(172,172,172);"/>
        </g>
    </g>
</svg>
